<svg height="512" width="512" xmlns="http://www.w3.org/2000/svg"><path d="m298.8006897 497.7409058-46.3027039-1.2137451 2.3889313-28.0602417 1.5006561-25.6575317h-6.1847229v-21.0286255h-3.7516632l-.3061981-9.0481262 11.1611938-2.2730713.9268799-77.10495-8.3777924-.4551697.4275818-20.8768921-4.0027008-.4579468.3227539-10.7777405h11.2522278l.0993042-18.2645264-11.1694641-.140686v-8.5708923h-5.233017v-1.9199829l-2.9820251.217926-5.5088654-9.5970764 42.3662109-9.0922699 42.9151611 10.0439606-6.2012634 8.3060913-3.2385864.1792908.2151794 1.2275696-5.7268066.8634338-.5793152 7.9695435-12.2618713.4468689.1268921 21.7155151 28.162323.4992981 1.3158264-36.0656128 3.2633972-41.8338165-.7172241-14.1763153-88.652359 5.1061249-74.3381042 3.8013153-1.0399933 24.6423645.0027618 25.7237244-2.3696136 38.5345459 32.5511932.7475586-.11586-14.3776855-8.7171021.4165344-.7254944-9.3763733-6.2371521.4661865-6.0854187-9.9915771 36.4545898-8.0798645 38.9648895 8.0109253-10.9046478 8.2784729-3.6716766.5406799-.4330902 7.522644-9.1943359.9075623-.8661957 17.1942139 7.7736664-.5848083v25.2189026h-6.3171387l-1.0289459 29.3015747 2.8192596 27.4230042 1.2468872 7.150238h5.1254272l-1.4096222 29.698822-3.7489166-.590332 1.1365356 49.0888672h-34.815979l2.8413239-48.6750793-28.1926422 2.5047913-.5627594 48.6254272-55.6570282-.6758728 5.3737106-22.1954956 2.9185715-23.014801-42.2724228 1.039978 6.8274765 49.1192322-38.4462738-.711731 1.1310158-49.9688416-7.1060905-1.1861877-2.0854836-26.5871582 12.1018753-1.8537598v-70.3161011h-7.3681564v-17.6135254l-2.2151375-1.426178-4.077177-8.6453857 13.0728931-3.3240662v-16.3004456l-10.5598297-.5875549-.5489578-7.1253967h-3.5089073l-9.9391499-8.2785034 36.3856201-10.7777405 45.0420341 10.8467102-4.7723389 6.6784973-9.8950119 2.2289429-1.2137756 8.962616h-11.4508532l.4165497 16.2700806 47.84198 2.714447 4.7723389-85.9710388-62.5976105 2.4082489-1.2606659-23.6989288h-3.1309853l.9792938-9.5005341 2.6096153-2.791687 1.2330856.0055237c.2537842 0 2.8302994.0606842 15.1363068 1.8537598 8.7557144 1.2689362 27.1747284.3530884 36.6035461-.2427521l-3.6109772-.6317139 17.036972-15.1528625v-6.6840363l-6.1074982-1.169632-.5213699-8.4109039c-5.2247391.3393097-16.3666306 1.0096436-22.8520432 1.0096436-8.5157242 0-36.4269943-2.3337555-37.6131859-2.4330597l-1.9227257-.1600037-6.8109245-22.9789429-13.5556412-1.2192841-3.4399452-10.9515457-22.5458431-2.7971954-9.296402-.6979218-5.2909486-9.3515703 19.6465797-17.249382-7.3736744-24.9816589 5.3792229 2.1130676c.21241.082756 21.7403393 8.4908981 51.2074432 15.6135406 29.6271133 7.1557465 180.5101929-3.1171951 259.5737305-13.3625412 77.9656372-10.1046677 174.9157715-56.1315079 175.8840332-56.5949478l1.6937866-.8082628 5.348877 4.758544-6.3254089 19.3183098-7.3157654 3.8344193-.9820557 5.0426788 15.2632313 33.3511828-7.1253967 5.5392227-37.3814697 10.350174-1.4068604 3.9144211-17.152832 4.9875031-8.7281494 23.6272049-1.6192627.2675781c-.1820679.0303497-18.3252258 3.0399475-30.9732971 6.0054169-11.0563965 2.5930634-37.1387329 4.5985565-45.4723816 5.1916504l-.4331055 14.2921753-5.7929993.1710358-.1213684 5.8785248 16.7528381 8.7722778.3144531 3.7957916 4.0661621-.4358521c13.3570251-1.426178 54.1177368-7.4398804 58.7218018-8.1212463h.7641296l1.1613464.3420563 4.4219971 2.5820312.513092 8.0522919-4.2785339 1.0979156-.2675781 28.0905762-82.0814514 6.2288666-1.6082458 16.2176666 3.0979004 31.1912231 3.7957764 17.3707581 4.4937439 31.188446 35.6573486.2703552-.7337952-16.5211182-11.6549683.1434326-.2675781-9.0950012h-4.3392639l-.2593079-1.6165466-4.7640381.3944702-4.9461365-9.1998291 40.1152039-8.1350403 43.8779297 8.8274231-12.3666992 6.1902466.4855042 2.4882507-5.5392151.4827576.6951599 7.7157288-12.1405029 1.0786133-.1241455 17.7955627 7.0812683.6234436v9.817749l-2.0027161-.3117065v19.246582l-4.7806091.140686.5379333 57.5521851 1.0289307 11.1087952h6.452301l.6013794 9.1750183-1.7185974.3503418-.1379089 19.1169128-5.3516541.5793152 1.0951538 18.485199 3.9723511 30.2726135-9.2660522 2.8082581-12.8935853.2868652-15.928009-1.4454651.1434326-32.225708 1.1889343-15.9390564-26.2919617.9682617 1.7047729 12.3198242 1.1227417 21.4892883 5.3378601 16.1707764-11.7073975 3.3599548-26.1899109 1.053772-22.2313843-1.7185974.1765442-28.3305664.8689575-21.4424133-28.272644.4965515.480011 12.8494263 2.9295959 17.770752zm-6.3033447-88.0123597 28.5678101.9903259-3.8564758-32.691864 1.0344543-41.5386658-26.8106079-1.7351379zm76.7904663-72.22229 3.382019 33.869812 1.0730896 36.8545837 27.5692139-2.0165405v-69.4747314zm-296.0117569-.9710083.2731018 69.0306091 44.5703125-2.1158142-2.9020233-11.5336304v-25.417511l4.1130371-27.5719604zm82.8400497 1.8261719.8717041 22.4410095.1351624 22.4631042 1.6165314 19.6824341 30.5236511-.5296326-.3696594-63.9355164zm3.0427094-161.7739258 13.9170074 7.5585022-.4192963 3.2220154 39.4172821-1.5503235-.5213623-.7530975.9930878-7.0040131-3.7240753-5.7516327.2593079-8.2591858-4.2509766-5.0095673.9186096-5.6357727-40.2476196 2.7475433-.5627594 12.7584076-6.2288666.3006897zm107.1237793-.0496521-.1765442 3.9420013 39.6517639-1.9309998 1.815155-5.5226746 16.8466187-11.0370636.3448181-6.8357544-8.6950378-.3668823.2041321-11.213623-43.5689392 5.4040527-1.7130737 6.8412781v1.7047882l-.7834473 3.9696045-1.2799683 3.0509796-.2593079 8.1433105z" fill="#181816"/></svg>